<?xml version="1.0" encoding="UTF-8"?>
<!DOCTYPE svg PUBLIC "-//W3C//DTD SVG 1.1//EN" "http://www.w3.org/Graphics/SVG/1.1/DTD/svg11.dtd">
<svg version="1.1" id="Layer_1" xmlns="http://www.w3.org/2000/svg" x="0" y="0" viewBox="0 0 256 256" style="enable-background:new 0 0 256 256" xml:space="preserve"><style>.st1{fill:#f9cfcf}.st3{fill:#a4c9ff}.st4{fill:#3762cc}.st5{fill:#e0ebfc}</style><path class="st1" d="M137.256 44.428H99.677c-32.172 0-58.252 24.992-58.252 55.821v42.813c0 2.061-1.744 3.732-3.894 3.732-5.689 0-10.771 3.986-11.311 9.414-.62 6.226 4.473 11.464 10.842 11.464h4.363V178c0 30.829 26.08 55.821 58.252 55.821h37.579c35.546 0 64.362-27.613 64.362-61.676v-66.041c0-34.063-28.816-61.676-64.362-61.676z"/><path class="st4" d="M137.256 235.821H99.677c-33.223 0-60.252-25.938-60.252-57.821v-8.328h-2.363c-3.723 0-7.264-1.553-9.714-4.259-2.355-2.602-3.463-5.941-3.118-9.403.626-6.289 6.468-11.216 13.301-11.216 1.045 0 1.895-.776 1.895-1.731V100.25c0-31.882 27.029-57.82 60.252-57.821h37.579c36.593 0 66.362 28.565 66.362 63.677v66.04c-.001 35.11-29.77 63.675-66.363 63.675zM99.677 46.428c-31.018.001-56.252 24.146-56.252 53.821v42.813c0 3.16-2.645 5.731-5.895 5.731-4.802 0-8.896 3.344-9.32 7.612-.231 2.323.516 4.568 2.103 6.322 1.693 1.87 4.153 2.943 6.749 2.943h4.363a2 2 0 0 1 2 2V178c0 29.677 25.234 53.821 56.252 53.821h37.579c34.387 0 62.362-26.771 62.362-59.677v-66.04c0-32.906-27.976-59.677-62.362-59.677H99.677z"/><path class="st1" d="M137.256 233.821c-40.612 0-42.428.44-51.048-1.516v13.782c0 1.069.867 1.935 1.935 1.935h71.191a1.935 1.935 0 0 0 1.935-1.935v-16.72a66.594 66.594 0 0 1-24.013 4.454z"/><path class="st4" d="M159.335 250.022h-71.19a3.94 3.94 0 0 1-3.936-3.936v-13.782a1.998 1.998 0 0 1 2.442-1.951c6.843 1.553 9.226 1.547 32.137 1.493 5.071-.012 11.138-.026 18.468-.026a64.484 64.484 0 0 0 23.295-4.321 2.001 2.001 0 0 1 2.72 1.866v16.721a3.94 3.94 0 0 1-3.936 3.936zm-71.126-15.244v11.309l71.126-.064-.054-13.81a68.498 68.498 0 0 1-22.025 3.608c-7.326 0-13.39.015-18.458.026-20.538.049-24.869.058-30.589-1.069z"/><path d="m236.5 74.828-.002.005c-5.994-23.05-22.394-42.445-44.449-53.885l.013-.019C162.67 4.024 111.813 6.314 78.669 12.942h.001C56.751 17.87 30.35 29.552 12.26 56.56c-.941 1.405.178 3.212 1.989 3.212h13.246s-15.121 8.907-16.957 26.764c-.133 1.291 1.162 2.323 2.535 2.04 11.773-2.428 60.081-11.013 107.104.445 2.432.593 4.139 2.608 4.139 4.927 0 15.158-.028 3.082.187 68.597l11.579 32.002c1.103 3.049 3.567 5.647 7.41 6.984 33.329 11.6 30.855 10.799 32.306 11.093l.001.007c6.747 2.616 4.877 1.976 8.506 2.973 0 0 31.916-21.771 43.733-48.707 4.438-8.884 6.074-15.113 6.074-15.113 9.549-23.986 7.654-56.836 2.388-76.956z" style="fill:#4671c6"/><path class="st4" d="M184.305 217.603c-.178 0-.355-.023-.53-.071l-1.277-.346c-1.675-.449-1.729-.471-4.586-1.587l-2.708-1.055c-.953-.178-.962-.181-14.917-5.045l-17.452-6.08c-4.182-1.454-7.247-4.364-8.633-8.192l-11.58-32.002a2.01 2.01 0 0 1-.119-.674l-.098-29.629c-.092-27.519-.092-27.519-.09-34.521l.001-4.453c0-1.382-1.074-2.608-2.612-2.983-46.067-11.226-92.956-3.168-106.227-.43a4.222 4.222 0 0 1-3.67-.983c-.925-.836-1.384-2.01-1.259-3.221 1.243-12.085 8.132-20.223 13.005-24.559h-7.305c-1.638 0-3.115-.863-3.857-2.254a3.903 3.903 0 0 1 .208-4.071C29.663 26.984 57.9 15.562 78.231 10.991c34.447-6.889 85.149-8.865 114.828 8.204.063.036.125.076.184.119 22.683 11.856 39.128 31.846 45.161 54.901.011.034.021.07.03.105 5.469 20.893 7.037 54.221-2.421 78.094-.262.955-1.994 6.984-6.187 15.375-11.868 27.058-43.073 48.563-44.396 49.465a1.99 1.99 0 0 1-1.125.349zm-7.627-6.777 2.688 1.047c2.706 1.057 2.706 1.057 4.167 1.448l.388.105c4.832-3.454 31.831-23.506 42.286-47.334 4.32-8.654 5.955-14.758 5.972-14.818.021-.078.046-.156.075-.23 9.156-23 7.634-55.279 2.341-75.598a1.99 1.99 0 0 1-.032-.11c-5.747-22.1-21.578-41.276-43.435-52.613a2.052 2.052 0 0 1-.323-.209c-28.754-16.356-78.123-14.331-111.743-7.61-19.574 4.401-46.81 15.404-65.14 42.77l.001-.002c.015 0 .104.101.325.101h13.247a2.001 2.001 0 0 1 1.015 3.724c-.139.082-14.202 8.609-15.97 25.115.03.012.075.017.128.006 13.479-2.777 61.104-10.961 107.982.461 3.336.813 5.665 3.639 5.665 6.87l-.001 4.454c-.002 7-.002 7 .09 34.507l.097 29.282 11.462 31.675c.981 2.712 3.12 4.71 6.186 5.776l17.455 6.08c13.165 4.589 13.679 4.768 14.338 4.892l.252.049c.17.032.332.088.484.162z"/><circle class="st1" cx="130.742" cy="129.312" r="28.387"/><path class="st4" d="M42.897 193.048a2 2 0 0 1 0-4c10.634 0 15.036 0 21.309-10.153a1.999 1.999 0 1 1 3.402 2.102c-7.444 12.051-13.943 12.051-24.711 12.051zM68.949 136.62c-5.35 0-9.703-4.346-9.703-9.688v-16.148c0-5.342 4.352-9.689 9.703-9.689 5.349 0 9.701 4.346 9.701 9.689v16.148c0 5.342-4.352 9.688-9.701 9.688z"/><path class="st5" d="m39.017 84.243-27.548-.342-.082 4.773 27.548.342c3.102.038 3.187-4.735.082-4.773z"/><path class="st4" d="M38.973 91.016h-.063l-27.548-.342a2.008 2.008 0 0 1-1.411-.607 2.004 2.004 0 0 1-.564-1.428l.083-4.773a2 2 0 0 1 1.999-1.965h.025l27.548.343c1.597.02 2.94.796 3.689 2.131.786 1.401.762 3.202-.062 4.589-.776 1.306-2.121 2.052-3.696 2.052zM13.42 86.699l25.539.316c.229-.007.243-.05.271-.096a.673.673 0 0 0 .012-.589c-.021-.038-.048-.086-.25-.088l-25.559-.318-.013.775z"/><circle class="st5" cx="133.299" cy="136.04" r="12.497"/><path class="st4" d="M133.299 150.537c-7.994 0-14.497-6.503-14.497-14.497s6.503-14.497 14.497-14.497 14.497 6.503 14.497 14.497-6.503 14.497-14.497 14.497zm0-24.994c-5.788 0-10.497 4.709-10.497 10.497s4.709 10.497 10.497 10.497 10.497-4.709 10.497-10.497-4.709-10.497-10.497-10.497z"/><path class="st3" d="M246.932 97.176c-.023-1.085-1.018-1.938-2.205-1.889-52.426 2.142-79.826 3.171-94.126 3.782v19.269c0 .724-.171 1.404-.457 2.02 14.391.23 42.042.518 95.098 1.256 1.202.017 2.182-.882 2.159-1.979l-.469-22.459z"/><path class="st4" d="M245.272 123.613h-.059c-28.989-.403-50.393-.672-66.194-.871-13.12-.164-22.379-.28-28.908-.385a1.999 1.999 0 0 1-1.782-2.843c.181-.387.271-.783.271-1.177v-19.27a2 2 0 0 1 1.915-1.998c6.429-.275 15.505-.634 28.312-1.141 15.682-.621 36.958-1.463 65.817-2.642a4.167 4.167 0 0 1 3.063 1.125 3.823 3.823 0 0 1 1.225 2.722l.469 22.457a3.828 3.828 0 0 1-1.131 2.791 4.23 4.23 0 0 1-2.998 1.232zm.128-3.936h.011-.011zm-92.799-1.281c6.338.095 14.901.202 26.47.348 15.802.198 37.208.467 66.198.87.073.007.103-.012.131-.026l-.466-22.28a.322.322 0 0 0-.127-.022c-28.86 1.18-50.139 2.021-65.821 2.643-11.578.458-20.106.795-26.385 1.059v17.408z"/><path class="st3" d="M145.78 94.075H99.984l-.138-.084h-.015a27.83 27.83 0 0 1 .663 6.538l-.307 17.73a27.264 27.264 0 0 1-4.993 15.278c11.904-10.14 11.246-9.482 11.737-10.379h38.848a4.821 4.821 0 0 0 4.821-4.821V98.896a4.82 4.82 0 0 0-4.82-4.821z"/><path class="st4" d="M95.195 135.537a2.002 2.002 0 0 1-1.635-3.152 25.232 25.232 0 0 0 4.628-14.16l.307-17.73a25.958 25.958 0 0 0-.615-6.069 1.998 1.998 0 0 1 .435-1.737 1.948 1.948 0 0 1 1.65-.692c.15.01.302.037.449.08h45.366c3.761 0 6.82 3.06 6.82 6.82v19.442c0 3.761-3.06 6.82-6.82 6.82h-37.809c-.673.712-2.187 1.998-6.445 5.618l-5.034 4.283a1.994 1.994 0 0 1-1.297.477zm7.037-39.462c.2 1.488.288 2.99.263 4.487l-.307 17.73a29.393 29.393 0 0 1-1.146 7.646c2.657-2.263 3.829-3.276 4.027-3.534l.109-.207a1.999 1.999 0 0 1 1.754-1.039h38.848a2.824 2.824 0 0 0 2.82-2.82V98.896a2.824 2.824 0 0 0-2.82-2.82h-43.548z"/><path class="st5" d="M133.299 137.236a4.839 4.839 0 0 1-4.839-4.839v-41.1a4.839 4.839 0 0 1 9.678 0v41.1a4.84 4.84 0 0 1-4.839 4.839z"/><path class="st4" d="M133.299 139.235a6.846 6.846 0 0 1-6.839-6.838v-41.1c0-3.771 3.068-6.839 6.839-6.839s6.839 3.068 6.839 6.839v41.101c0 3.77-3.069 6.837-6.839 6.837zm0-50.777a2.842 2.842 0 0 0-2.839 2.839v41.101c0 1.564 1.273 2.838 2.839 2.838s2.839-1.273 2.839-2.838V91.297a2.842 2.842 0 0 0-2.839-2.839z"/><path class="st3" d="M12.056 72.888h29.399l-2.884-6.02a5.967 5.967 0 0 0-5.303-3.411l-18.287-.227c-1.528-.019-2.789 1.225-2.816 2.778l-.119 6.881.01-.001z"/><path class="st4" d="M12.047 74.89a2.002 2.002 0 0 1-2-2.035l.118-6.881c.047-2.629 2.186-4.744 4.781-4.744h.061l9.143.113 9.144.113c3.043.038 5.756 1.781 7.082 4.548l2.884 6.02a2 2 0 0 1-1.803 2.865H12.108l-.061.001zm2.034-4.001h24.198l-1.512-3.155c-.664-1.386-2.014-2.258-3.524-2.276l-9.143-.113-9.144-.113h-.01c-.425 0-.774.362-.782.813l-.083 4.844z"/><path class="st5" d="M12.056 72.888a2 2 0 0 0-2 2v66.006l-.007 1.027c-.059 3.431 2.643 6.239 6.002 6.235 16.246-.018 35.974-.823 59.276-3.067 13.899-1.339 24.621-12.897 24.862-26.83l.307-17.73c.271-15.705-12.379-28.124-28.106-27.626l-60.334-.015z"/><path class="st4" d="M16.046 150.156a7.882 7.882 0 0 1-5.658-2.38 8.134 8.134 0 0 1-2.339-5.891l.007-1.005V74.889c0-2.206 1.794-4 4-4l60.333.014c8.126-.269 15.768 2.705 21.487 8.343 5.698 5.617 8.76 13.188 8.619 21.317l-.307 17.73c-.26 14.972-11.725 27.347-26.67 28.786-20.977 2.021-40.983 3.056-59.466 3.077h-.006zm-3.99-75.267h-.003l.003 66.006-.007 1.04c-.021 1.164.403 2.235 1.19 3.036a3.912 3.912 0 0 0 2.807 1.186h.003c18.355-.021 38.235-1.05 59.087-3.06 12.918-1.243 22.829-11.937 23.053-24.872l.307-17.73c.122-7.024-2.516-13.56-7.427-18.399-4.933-4.862-11.548-7.408-18.616-7.193l-60.397-.014z"/><path d="m63.198 78.248.026-.043H10.495v.043h-.439c-.804 0-1.457.652-1.457 1.457v59.735c0 .804.652 1.457 1.457 1.457l4.938-.021c3.119.034 6.433.023 9.942-.043l.165-.001.002-.002c10.873-.21 23.609-.953 38.271-2.571 10.262-1.133 18.184-10.771 18.381-22.349l.251-14.749c.21-12.328-8.1-22.229-18.808-22.913z" style="fill:#6bdddd"/><path class="st4" d="M10.064 142.896a3.463 3.463 0 0 1-3.465-3.457V79.704a3.46 3.46 0 0 1 3.456-3.456h.034a1.94 1.94 0 0 1 .405-.043h52.729c.195 0 .386.028.567.082 11.594 1.009 20.436 11.85 20.214 24.907l-.251 14.748c-.215 12.61-8.883 23.059-20.162 24.304-13.387 1.477-26.288 2.345-38.347 2.58a1.975 1.975 0 0 1-.134.005l-.165.001c-3.365.063-6.731.079-9.976.043l-4.905.021zm15.037-2.065h.01-.01zM10.6 80.245v58.649l4.385-.02c3.235.036 6.561.021 9.913-.043h.084l.083-.004c11.968-.229 24.783-1.091 38.089-2.559 9.284-1.024 16.421-9.793 16.602-20.396l.251-14.748c.189-11.091-7.25-20.264-16.935-20.882a2.057 2.057 0 0 1-.285-.039H10.9a1.655 1.655 0 0 1-.3.042z"/></svg>